# xmcd
#
# Track frame offsets: 
#        150
#        16200
#        30000
#        46650
#        60450
#        76650
#        92400
#        106950
#        121800
#        137850
#
# Disc length: 2044 seconds
#
# Revision: 0
# Processed by: cddbd v1.5.1PL2 Copyright (c) Steve Scherf et al.
# Submitted via: ExactAudioCopy v0.95b4
#
DISCID=6207fa0a
DTITLE=พรพรรณ  วนา - คุณชายโรงแรม
DYEAR=1900
DGENRE=Country
TTITLE0=คุณชายโรงแรม
TTITLE1=พอกันที 14 กุมภา
TTITLE2=รอรับคนซับน้ำตา
TTITLE3=ของแค่เนี้ย
TTITLE4=เมียเธอให้มา
TTITLE5=นึกว่าตายจากกัน
TTITLE6=ฉันเอาแน่
TTITLE7=คิดถึงจริงๆ
TTITLE8=รอคอยอยู่ซอยเดิม
TTITLE9=อย่าเห็นฉันเป็นทางผ่าน
EXTD=
EXTT0=
EXTT1=
EXTT2=
EXTT3=
EXTT4=
EXTT5=
EXTT6=
EXTT7=
EXTT8=
EXTT9=
PLAYORDER=
